<svg width="1200" height="760" viewBox="0 0 1200 760" fill="none" xmlns="http://www.w3.org/2000/svg">
<rect width="1200" height="760" rx="32" fill="#0C1430"/>
<rect x="34" y="34" width="1132" height="692" rx="24" fill="#121D3D" stroke="#24335E"/>
<rect x="72" y="78" width="280" height="604" rx="18" fill="#0E1734" stroke="#24335E"/>
<rect x="104" y="126" width="216" height="18" rx="9" fill="#2B3F74"/>
<rect x="104" y="164" width="164" height="12" rx="6" fill="#273862"/>
<rect x="104" y="202" width="216" height="72" rx="14" fill="#18254A"/>
<rect x="122" y="224" width="115" height="14" rx="7" fill="#4D8DFF"/>
<rect x="122" y="248" width="170" height="10" rx="5" fill="#8EAAE8"/>
<rect x="104" y="298" width="216" height="72" rx="14" fill="#18254A"/>
<rect x="122" y="320" width="96" height="14" rx="7" fill="#20D4A0"/>
<rect x="122" y="344" width="164" height="10" rx="5" fill="#8EAAE8"/>
<rect x="104" y="394" width="216" height="72" rx="14" fill="#18254A"/>
<rect x="122" y="416" width="126" height="14" rx="7" fill="#4D8DFF"/>
<rect x="122" y="440" width="176" height="10" rx="5" fill="#8EAAE8"/>
<rect x="386" y="78" width="742" height="302" rx="18" fill="#0E1734" stroke="#24335E"/>
<rect x="418" y="116" width="180" height="16" rx="8" fill="#2B3F74"/>
<rect x="418" y="154" width="672" height="194" rx="14" fill="#16254C"/>
<rect x="446" y="182" width="230" height="138" rx="12" fill="#1D315F"/>
<rect x="468" y="206" width="92" height="12" rx="6" fill="#4D8DFF"/>
<rect x="468" y="232" width="186" height="10" rx="5" fill="#93AEEA"/>
<rect x="468" y="254" width="154" height="10" rx="5" fill="#93AEEA"/>
<rect x="708" y="182" width="354" height="138" rx="12" fill="#1D315F"/>
<path d="M748 286L798 246L862 270L932 214L1006 250" stroke="#20D4A0" stroke-width="12" stroke-linecap="round" stroke-linejoin="round"/>
<circle cx="798" cy="246" r="10" fill="#20D4A0"/>
<circle cx="932" cy="214" r="10" fill="#4D8DFF"/>
<rect x="386" y="414" width="742" height="268" rx="18" fill="#0E1734" stroke="#24335E"/>
<rect x="418" y="450" width="220" height="16" rx="8" fill="#2B3F74"/>
<rect x="418" y="488" width="440" height="158" rx="14" fill="#16254C"/>
<rect x="446" y="516" width="120" height="32" rx="10" fill="#4D8DFF"/>
<rect x="584" y="516" width="120" height="32" rx="10" fill="#20D4A0"/>
<rect x="722" y="516" width="108" height="32" rx="10" fill="#2A3D72"/>
<rect x="446" y="566" width="380" height="10" rx="5" fill="#8DA9E7"/>
<rect x="446" y="588" width="312" height="10" rx="5" fill="#8DA9E7"/>
<rect x="876" y="488" width="214" height="158" rx="14" fill="#16254C"/>
<path d="M908 568C908 537.072 933.072 512 964 512H1002C1032.93 512 1058 537.072 1058 568V600H908V568Z" fill="#4D8DFF"/>
<rect x="930" y="600" width="106" height="16" rx="8" fill="#93AEEA"/>
</svg>
